<mxfile host="app.diagrams.net" modified="2024-02-25T18:38:13.093Z" agent="Mozilla/5.0 (Windows NT 10.0; Win64; x64) AppleWebKit/537.36 (KHTML, like Gecko) Chrome/122.0.0.0 Safari/537.36" etag="L1ZUL1M7IbPEHCI89oCL" version="23.1.6" type="device">
  <diagram name="Page-1" id="_a-qMCfKqFlfd54H7Kzc">
    <mxGraphModel dx="567" dy="1878" grid="1" gridSize="10" guides="1" tooltips="1" connect="1" arrows="1" fold="1" page="1" pageScale="1" pageWidth="850" pageHeight="1100" math="0" shadow="0">
      <root>
        <mxCell id="0" />
        <mxCell id="1" parent="0" />
        <mxCell id="uu1oGtS7b5h-EQwZLsjT-1" value="&lt;b&gt;Azure&lt;/b&gt;" style="ellipse;shape=cloud;whiteSpace=wrap;html=1;fillColor=#dae8fc;strokeColor=#6c8ebf;" vertex="1" parent="1">
          <mxGeometry x="50" y="-80" width="250" height="160" as="geometry" />
        </mxCell>
        <mxCell id="uu1oGtS7b5h-EQwZLsjT-5" style="edgeStyle=orthogonalEdgeStyle;rounded=0;orthogonalLoop=1;jettySize=auto;html=1;exitX=0.5;exitY=0;exitDx=0;exitDy=0;" edge="1" parent="1" source="uu1oGtS7b5h-EQwZLsjT-2" target="uu1oGtS7b5h-EQwZLsjT-3">
          <mxGeometry relative="1" as="geometry" />
        </mxCell>
        <mxCell id="uu1oGtS7b5h-EQwZLsjT-2" value="&lt;b&gt;Github Repository (Branch)&lt;/b&gt;" style="rounded=0;whiteSpace=wrap;html=1;fillColor=#f5f5f5;fontColor=#333333;strokeColor=#666666;" vertex="1" parent="1">
          <mxGeometry x="370" y="174" width="120" height="60" as="geometry" />
        </mxCell>
        <mxCell id="uu1oGtS7b5h-EQwZLsjT-17" style="edgeStyle=orthogonalEdgeStyle;rounded=0;orthogonalLoop=1;jettySize=auto;html=1;exitX=0.5;exitY=0;exitDx=0;exitDy=0;entryX=0.5;entryY=1;entryDx=0;entryDy=0;" edge="1" parent="1" source="uu1oGtS7b5h-EQwZLsjT-3" target="uu1oGtS7b5h-EQwZLsjT-16">
          <mxGeometry relative="1" as="geometry" />
        </mxCell>
        <mxCell id="uu1oGtS7b5h-EQwZLsjT-3" value="&lt;b&gt;Github Actions&lt;/b&gt;" style="rounded=0;whiteSpace=wrap;html=1;fillColor=#ffe6cc;strokeColor=#d79b00;" vertex="1" parent="1">
          <mxGeometry x="370" y="74" width="120" height="60" as="geometry" />
        </mxCell>
        <mxCell id="uu1oGtS7b5h-EQwZLsjT-7" style="edgeStyle=orthogonalEdgeStyle;rounded=0;orthogonalLoop=1;jettySize=auto;html=1;exitX=1;exitY=0.5;exitDx=0;exitDy=0;entryX=0;entryY=0.5;entryDx=0;entryDy=0;fontStyle=1" edge="1" parent="1" source="uu1oGtS7b5h-EQwZLsjT-4" target="uu1oGtS7b5h-EQwZLsjT-2">
          <mxGeometry relative="1" as="geometry" />
        </mxCell>
        <mxCell id="uu1oGtS7b5h-EQwZLsjT-8" value="Push" style="edgeLabel;html=1;align=center;verticalAlign=middle;resizable=0;points=[];" vertex="1" connectable="0" parent="uu1oGtS7b5h-EQwZLsjT-7">
          <mxGeometry y="2" relative="1" as="geometry">
            <mxPoint y="2" as="offset" />
          </mxGeometry>
        </mxCell>
        <mxCell id="uu1oGtS7b5h-EQwZLsjT-4" value="&lt;b&gt;Local repository&lt;/b&gt;" style="rounded=0;whiteSpace=wrap;html=1;fillColor=#f5f5f5;fontColor=#333333;strokeColor=#666666;" vertex="1" parent="1">
          <mxGeometry x="160" y="174" width="120" height="60" as="geometry" />
        </mxCell>
        <mxCell id="uu1oGtS7b5h-EQwZLsjT-12" style="edgeStyle=orthogonalEdgeStyle;rounded=0;orthogonalLoop=1;jettySize=auto;html=1;exitX=0.5;exitY=0.5;exitDx=0;exitDy=0;exitPerimeter=0;entryX=0;entryY=0.5;entryDx=0;entryDy=0;" edge="1" parent="1" source="uu1oGtS7b5h-EQwZLsjT-9" target="uu1oGtS7b5h-EQwZLsjT-4">
          <mxGeometry relative="1" as="geometry">
            <Array as="points">
              <mxPoint x="130" y="130" />
              <mxPoint x="130" y="204" />
            </Array>
          </mxGeometry>
        </mxCell>
        <mxCell id="uu1oGtS7b5h-EQwZLsjT-13" value="Develop" style="edgeLabel;html=1;align=center;verticalAlign=middle;resizable=0;points=[];" vertex="1" connectable="0" parent="uu1oGtS7b5h-EQwZLsjT-12">
          <mxGeometry x="-0.0853" y="-3" relative="1" as="geometry">
            <mxPoint x="3" y="18" as="offset" />
          </mxGeometry>
        </mxCell>
        <mxCell id="uu1oGtS7b5h-EQwZLsjT-9" value="Developer&lt;div&gt;&lt;br&gt;&lt;/div&gt;" style="shape=umlActor;verticalLabelPosition=bottom;verticalAlign=top;html=1;outlineConnect=0;fontStyle=1;fillColor=#f5f5f5;fontColor=#333333;strokeColor=#666666;" vertex="1" parent="1">
          <mxGeometry x="50" y="100" width="30" height="60" as="geometry" />
        </mxCell>
        <mxCell id="uu1oGtS7b5h-EQwZLsjT-20" style="edgeStyle=orthogonalEdgeStyle;rounded=0;orthogonalLoop=1;jettySize=auto;html=1;exitX=1;exitY=0.5;exitDx=0;exitDy=0;entryX=1;entryY=0.5;entryDx=0;entryDy=0;" edge="1" parent="1" source="uu1oGtS7b5h-EQwZLsjT-16" target="uu1oGtS7b5h-EQwZLsjT-2">
          <mxGeometry relative="1" as="geometry">
            <Array as="points">
              <mxPoint x="560" />
              <mxPoint x="560" y="204" />
            </Array>
          </mxGeometry>
        </mxCell>
        <mxCell id="uu1oGtS7b5h-EQwZLsjT-21" value="No: Fail Build/Notify team" style="edgeLabel;html=1;align=center;verticalAlign=middle;resizable=0;points=[];" vertex="1" connectable="0" parent="uu1oGtS7b5h-EQwZLsjT-20">
          <mxGeometry x="-0.0365" y="4" relative="1" as="geometry">
            <mxPoint as="offset" />
          </mxGeometry>
        </mxCell>
        <mxCell id="uu1oGtS7b5h-EQwZLsjT-16" value="&lt;b&gt;Tests passed?&lt;/b&gt;" style="rhombus;whiteSpace=wrap;html=1;fillColor=#d5e8d4;strokeColor=#82b366;" vertex="1" parent="1">
          <mxGeometry x="380" y="-50" width="100" height="100" as="geometry" />
        </mxCell>
        <mxCell id="uu1oGtS7b5h-EQwZLsjT-18" style="edgeStyle=orthogonalEdgeStyle;rounded=0;orthogonalLoop=1;jettySize=auto;html=1;exitX=0;exitY=0.5;exitDx=0;exitDy=0;entryX=0.875;entryY=0.5;entryDx=0;entryDy=0;entryPerimeter=0;" edge="1" parent="1" source="uu1oGtS7b5h-EQwZLsjT-16" target="uu1oGtS7b5h-EQwZLsjT-1">
          <mxGeometry relative="1" as="geometry" />
        </mxCell>
        <mxCell id="uu1oGtS7b5h-EQwZLsjT-19" value="Yes: Deploy" style="edgeLabel;html=1;align=center;verticalAlign=middle;resizable=0;points=[];" vertex="1" connectable="0" parent="uu1oGtS7b5h-EQwZLsjT-18">
          <mxGeometry x="-0.0105" y="-3" relative="1" as="geometry">
            <mxPoint as="offset" />
          </mxGeometry>
        </mxCell>
      </root>
    </mxGraphModel>
  </diagram>
</mxfile>
